<svg xmlns="http://www.w3.org/2000/svg" version="1.1" xmlns:xlink="http://www.w3.org/1999/xlink" xmlns:svgjs="http://svgjs.dev/svgjs" width="1500" height="1500" viewBox="0 0 1500 1500"><rect width="1500" height="1500" fill="#ffffff"></rect><g transform="matrix(0.6666666666666666,0,0,0.6666666666666666,249.3939393947192,639.1394351364947)"><svg viewBox="0 0 396 88" data-background-color="#ffffff" preserveAspectRatio="xMidYMid meet" height="333" width="1500" xmlns="http://www.w3.org/2000/svg" xmlns:xlink="http://www.w3.org/1999/xlink"><g id="tight-bounds" transform="matrix(1,0,0,1,0.2399999996911788,-0.05527158563756984)"><svg viewBox="0 0 395.52 88.11054317127514" height="88.11054317127514" width="395.52"><g><svg viewBox="0 0 536.6241747450039 119.54451738374686" height="88.11054317127514" width="395.52"><g transform="matrix(1,0,0,1,141.1041747450039,14.109723403964004)"><svg viewBox="0 0 395.52 91.32507057581886" height="91.32507057581886" width="395.52"><g id="textblocktransform"><svg viewBox="0 0 395.52 91.32507057581886" height="91.32507057581886" width="395.52" id="textblock"><g><svg viewBox="0 0 395.52 91.32507057581886" height="91.32507057581886" width="395.52"><g transform="matrix(1,0,0,1,0,0)"><svg width="395.52" viewBox="0.78 -37.38445909461599 166.113888888398 38.36612589460599" height="91.32507057581886" data-palette-color="#bbc8d5"><path d="M13.09-11.77L13.09-11.77Q11.72-11.77 11.82-13.04L11.82-13.04Q11.91-14.06 11.77-14.7L11.77-14.7Q11.52-15.77 11.67-16.26L11.67-16.26Q12.06-17.72 14.84-16.94L14.84-16.94Q15.33-16.8 15.63-16.8 15.92-16.8 16.21-16.85L16.21-16.85Q17.09-16.99 17.8-16.87 18.51-16.75 19.04-16.8 19.58-16.85 20.04-16.94 20.51-17.04 20.9-17.14 21.29-17.24 21.63-17.24L21.63-17.24Q22.12-17.24 22.34-16.43 22.56-15.63 22.51-14.65L22.51-14.65Q22.36-12.16 21.34-11.77L21.34-11.77Q20.61-11.47 19.95-10.84 19.29-10.21 19.46-8.96 19.63-7.71 19.65-7.01 19.68-6.3 19.65-5.79 19.63-5.27 19.6-4.91 19.58-4.54 19.65-3.98 19.73-3.42 19.6-2.49 19.48-1.56 19.14-0.83L19.14-0.83Q18.31 0.93 17.04 0.49L17.04 0.49Q16.11 0.2 15.23-1.07L15.23-1.07Q14.94-1.51 14.67-1.83 14.4-2.15 13.96-2.03 13.53-1.9 13.21-1.54 12.89-1.17 12.55-0.78L12.55-0.78Q10.5 1.76 7.32-0.05L7.32-0.05Q5.71-0.93 5.08-2.25L5.08-2.25Q4.83-2.83 4.57-3.56 4.3-4.3 3.96-4.98L3.96-4.98Q3.17-6.59 2.44-7.13L2.44-7.13Q1.76-7.67 1.66-12.4L1.66-12.4Q1.61-13.43 1.71-14.18 1.81-14.94 1.81-16.11L1.81-16.11 1.81-18.36Q1.81-19.43 1.76-20.41L1.76-20.41Q1.76-21.97 2-23.14L2-23.14Q0.44-24.17 0.78-27.1L0.78-27.1Q1.03-28.96 1.49-29.81 1.95-30.66 2.22-31.52 2.49-32.37 2.78-33.33 3.08-34.28 3.61-34.57 4.15-34.86 4.3-35.06 4.44-35.25 4.59-35.45L4.59-35.45Q5.52-36.82 8.59-37.3L8.59-37.3Q9.96-37.55 11.28-37.06 12.6-36.57 13.48-36.47 14.36-36.38 15.14-36.33L15.14-36.33Q18.51-36.13 19.53-34.91L19.53-34.91Q20.26-34.08 20.46-33.23 20.65-32.37 20.97-31.86 21.29-31.35 21.19-30.79 21.09-30.22 21.17-29.86 21.24-29.49 21.09-29.1 20.95-28.71 20.8-28.32L20.8-28.32Q20.51-27.29 20.87-26.86 21.24-26.42 21.53-26.05 21.83-25.68 21.97-25.29L21.97-25.29Q22.41-24.32 22.07-23.63 21.73-22.95 21.31-22.31 20.9-21.68 20.26-21.63L20.26-21.63Q18.55-21.48 17.97-21.07 17.38-20.65 16.99-20.51L16.99-20.51Q16.02-20.07 15.19-20.61L15.19-20.61Q13.82-21.24 14.01-22.95L14.01-22.95Q14.11-25 12.5-25.2L12.5-25.2Q11.77-25.29 10.99-24.76 10.21-24.22 9.77-23.34L9.77-23.34Q8.74-21.04 9.52-19.09L9.52-19.09Q9.72-18.6 9.72-17.87L9.72-17.87 9.72-16.6Q9.72-15.48 9.45-14.94 9.18-14.4 9.13-13.7 9.08-12.99 9.11-12.06 9.13-11.13 9.25-10.08 9.38-9.03 9.57-8.15L9.57-8.15Q10.11-6.1 11.08-6.2L11.08-6.2Q11.87-6.2 12.3-6.93L12.3-6.93Q12.45-7.23 12.65-7.52 12.84-7.81 13.23-7.98 13.62-8.15 13.79-8.54 13.96-8.94 13.96-9.47L13.96-9.47Q14.01-10.06 13.87-11.87L13.87-11.87Q13.48-11.77 13.09-11.77ZM25.14-26.37L24.95-27.98 25-28.91Q25-29.05 24.83-29.66 24.66-30.27 24.63-30.81 24.61-31.35 24.63-31.71 24.66-32.08 24.68-32.4 24.7-32.71 24.53-33.28 24.36-33.84 24.66-34.33 24.95-34.81 25-35.28 25.05-35.74 25.29-36.21 25.53-36.67 26.29-36.96 27.05-37.26 27.46-37.01 27.88-36.77 28.37-36.43L28.37-36.43Q29.73-35.45 31.03-35.55 32.32-35.64 32.81-35.38 33.3-35.11 33.54-34.67 33.79-34.23 33.88-33.74 33.98-33.25 34.13-32.76 34.27-32.28 34.37-31.49 34.47-30.71 34.01-29.91 33.54-29.1 33.57-28.52 33.59-27.93 33.74-27.25L33.74-27.25Q34.03-25.39 33.54-23.83L33.54-23.83Q33.44-23.63 33.42-23.46 33.4-23.29 33.3-23.14L33.3-23.14Q35.4-24.56 35.89-25.24L35.89-25.24Q36.47-25.93 36.81-26.93 37.16-27.93 37.3-28.17 37.45-28.42 37.55-28.56L37.55-28.56Q37.79-28.81 37.94-29.59L37.94-29.59Q38.33-31.64 39.01-32.18L39.01-32.18Q38.86-33.64 39.4-34.99 39.94-36.33 41.5-36.55 43.06-36.77 43.75-36.18L43.75-36.18Q44.97-36.43 45.55-36.3 46.14-36.18 46.73-35.55L46.73-35.55Q47.8-34.47 47.17-31.64L47.17-31.64Q47.02-31.1 46.99-30.49 46.97-29.88 46.87-29.3L46.87-29.3Q46.63-27.93 45.65-27.1L45.65-27.1Q43.8-25.54 43.8-22.61L43.8-22.61Q43.8-21.34 43.33-20.87 42.87-20.41 42.28-20.46 41.7-20.51 41.18-20.17 40.67-19.82 40.23-19.34L40.23-19.34Q39.16-18.07 39.13-17.38 39.11-16.7 39.55-15.97 39.99-15.23 40.57-14.16L40.57-14.16 41.7-12.16Q43.8-8.4 43.8-4L43.8-4Q43.8-3.27 44.26-2.27 44.72-1.27 44.26-0.34 43.8 0.59 43.11 0.73L43.11 0.73Q40.57 1.46 39.74-2.25L39.74-2.25Q39.11-4.88 36.72-6.79L36.72-6.79Q36.08-7.32 35.84-8.15L35.84-8.15 35.45-9.38Q35.3-9.86 35.03-10.23 34.76-10.6 34.47-11.01 34.18-11.43 33.74-11.38L33.74-11.38Q33.05-11.28 33.01-9.91L33.01-9.91 33.01-8.59Q33.01-4.64 31.98-4.05L31.98-4.05Q31.54-3.81 31.3-3.13L31.3-3.13 30.86-1.76Q30.61-1.03 30.25-0.42 29.88 0.2 29.1 0.29L29.1 0.29Q27.59 0.49 27.02-1.12 26.46-2.73 26.41-4.79 26.36-6.84 26.27-7.37 26.17-7.91 26-8.28 25.83-8.64 25.66-8.96 25.49-9.28 25.29-9.81L25.29-9.81Q24.85-11.08 24.78-12.72 24.7-14.36 24.78-14.89 24.85-15.43 24.7-16.26L24.7-16.26Q24.51-17.09 24.66-17.75 24.8-18.41 24.75-18.97 24.7-19.53 24.8-20.02 24.9-20.51 25-21.09L25-21.09Q25.24-22.41 25.14-23.51 25.05-24.61 25.07-25.05 25.1-25.49 25.12-25.78 25.14-26.07 25.14-26.37L25.14-26.37ZM61.52-26.37L61.32-27.98 61.37-28.91Q61.37-29.05 61.2-29.66 61.03-30.27 61-30.81 60.98-31.35 61-31.71 61.03-32.08 61.05-32.4 61.08-32.71 60.91-33.28 60.73-33.84 61.03-34.33 61.32-34.81 61.37-35.28 61.42-35.74 61.66-36.21 61.91-36.67 62.66-36.96 63.42-37.26 63.84-37.01 64.25-36.77 64.74-36.43L64.74-36.43Q66.11-35.45 67.4-35.55 68.69-35.64 69.18-35.38 69.67-35.11 69.91-34.67 70.16-34.23 70.26-33.74 70.35-33.25 70.5-32.76 70.65-32.28 70.74-31.49 70.84-30.71 70.38-29.91 69.91-29.1 69.94-28.52 69.96-27.93 70.11-27.25L70.11-27.25Q70.4-25.39 69.91-23.83L69.91-23.83Q69.82-23.63 69.79-23.46 69.77-23.29 69.67-23.14L69.67-23.14Q71.77-24.56 72.26-25.24L72.26-25.24Q72.84-25.93 73.19-26.93 73.53-27.93 73.67-28.17 73.82-28.42 73.92-28.56L73.92-28.56Q74.16-28.81 74.31-29.59L74.31-29.59Q74.7-31.64 75.38-32.18L75.38-32.18Q75.24-33.64 75.77-34.99 76.31-36.33 77.87-36.55 79.44-36.77 80.12-36.18L80.12-36.18Q81.34-36.43 81.93-36.3 82.51-36.18 83.1-35.55L83.1-35.55Q84.17-34.47 83.54-31.64L83.54-31.64Q83.39-31.1 83.37-30.49 83.34-29.88 83.24-29.3L83.24-29.3Q83-27.93 82.02-27.1L82.02-27.1Q80.17-25.54 80.17-22.61L80.17-22.61Q80.17-21.34 79.7-20.87 79.24-20.41 78.65-20.46 78.07-20.51 77.56-20.17 77.04-19.82 76.6-19.34L76.6-19.34Q75.53-18.07 75.51-17.38 75.48-16.7 75.92-15.97 76.36-15.23 76.95-14.16L76.95-14.16 78.07-12.16Q80.17-8.4 80.17-4L80.17-4Q80.17-3.27 80.63-2.27 81.1-1.27 80.63-0.34 80.17 0.59 79.48 0.73L79.48 0.73Q76.95 1.46 76.12-2.25L76.12-2.25Q75.48-4.88 73.09-6.79L73.09-6.79Q72.45-7.32 72.21-8.15L72.21-8.15 71.82-9.38Q71.67-9.86 71.4-10.23 71.14-10.6 70.84-11.01 70.55-11.43 70.11-11.38L70.11-11.38Q69.43-11.28 69.38-9.91L69.38-9.91 69.38-8.59Q69.38-4.64 68.35-4.05L68.35-4.05Q67.91-3.81 67.67-3.13L67.67-3.13 67.23-1.76Q66.98-1.03 66.62-0.42 66.25 0.2 65.47 0.29L65.47 0.29Q63.96 0.49 63.4-1.12 62.83-2.73 62.79-4.79 62.74-6.84 62.64-7.37 62.54-7.91 62.37-8.28 62.2-8.64 62.03-8.96 61.86-9.28 61.66-9.81L61.66-9.81Q61.22-11.08 61.15-12.72 61.08-14.36 61.15-14.89 61.22-15.43 61.08-16.26L61.08-16.26Q60.88-17.09 61.03-17.75 61.17-18.41 61.13-18.97 61.08-19.53 61.17-20.02 61.27-20.51 61.37-21.09L61.37-21.09Q61.61-22.41 61.52-23.51 61.42-24.61 61.44-25.05 61.47-25.49 61.49-25.78 61.52-26.07 61.52-26.37L61.52-26.37ZM97.26-27L97.26-27Q95.6-26.56 96.62-21.34L96.62-21.34Q96.96-19.92 96.99-18.97 97.01-18.02 96.72-16.89 96.43-15.77 96.43-15.09 96.43-14.4 96.23-13.48L96.23-13.48Q96.28-12.45 96.21-11.4 96.13-10.35 96.08-9.38L96.08-9.38Q95.94-6.98 96.03-6.54 96.13-6.1 96.35-5.98 96.57-5.86 96.87-5.76L96.87-5.76Q97.55-5.52 97.7-5.13 97.84-4.74 97.82-4.03 97.79-3.32 97.65-2.54L97.65-2.54Q97.21-0.68 96.43-0.15L96.43-0.15Q95.99 0.15 95.52 0.05 95.06-0.05 94.52-0.15L94.52-0.15Q92.86-0.44 91.69 0.15L91.69 0.15Q88.81 1.71 87.25 0.15L87.25 0.15Q86.61-0.49 86.46-1.81L86.46-1.81Q86.27-4.2 86.73-4.88 87.2-5.57 87.51-5.74 87.83-5.91 88.08-6.05L88.08-6.05Q88.61-6.3 88.61-6.88L88.61-6.88Q88.61-7.32 88.74-7.84 88.86-8.35 88.95-8.94L88.95-8.94Q89.2-10.35 88.71-11.28L88.71-11.28Q88.17-12.35 88.25-13.04 88.32-13.72 88.37-14.26L88.37-14.26 88.56-15.43Q88.66-16.85 88.52-17.85 88.37-18.85 88.3-19.95 88.22-21.04 88.25-22.02 88.27-23 88.27-23.88L88.27-23.88Q88.27-25.93 87.86-26.32 87.44-26.71 87.1-26.73 86.76-26.76 86.42-26.76L86.42-26.76Q85.49-26.66 85.24-27.05L85.24-27.05Q84.71-27.59 84.71-28.42 84.71-29.25 85.02-29.69 85.34-30.13 85.44-30.69 85.54-31.25 85.54-31.88L85.54-31.88Q85.63-33.35 85.44-33.81 85.24-34.28 85.17-34.64 85.1-35.01 85.1-35.35L85.1-35.35Q85.1-36.77 87.1-36.82L87.1-36.82Q88.32-36.87 89.59-36.79 90.86-36.72 91.59-36.87L91.59-36.87Q94.13-37.35 95.67-37.26 97.21-37.16 97.65-37.01L97.65-37.01Q98.87-36.52 98.96-34.33L98.96-34.33Q99.01-33.3 99.01-32.18 99.01-31.05 99.11-29.88L99.11-29.88Q99.31-27.44 97.26-27ZM106.29-35.64L106.29-35.64Q108.73-36.62 108.92-35.84L108.92-35.84Q110.14-36.13 110.73-35.11L110.73-35.11Q110.93-34.77 111.49-33.69 112.05-32.62 112.71-31.4 113.37-30.18 113.95-29.1 114.54-28.03 114.73-27.66 114.93-27.29 115.22-27.25 115.51-27.2 115.81-27.39L115.81-27.39Q116.44-27.88 116.17-28.86 115.91-29.83 115.93-30.4 115.95-30.96 116.05-31.45L116.05-31.45Q116.34-32.81 116.15-33.64 115.95-34.47 115.95-35.21L115.95-35.21Q115.95-36.67 118.35-36.67L118.35-36.67Q118.84-36.67 119.47-36.65 120.1-36.62 121.37-36.74 122.64-36.87 123.6-36.06 124.55-35.25 124.21-33.2L124.21-33.2Q123.77-30.42 123.82-29.47 123.86-28.52 123.86-27.69L123.86-27.69Q123.86-26.81 123.57-25.1L123.57-25.1Q123.03-22.07 123.28-20.8L123.28-20.8Q123.47-19.68 123.47-19.14L123.47-19.14 123.47-18.36Q123.47-18.21 123.57-17.72 123.67-17.24 123.52-16.72 123.38-16.21 123.47-15.63 123.57-15.04 123.23-14.28 122.89-13.53 122.91-12.62 122.94-11.72 122.79-10.99 122.64-10.25 122.94-9.28L122.94-9.28Q123.38-7.76 122.2-3.96L122.2-3.96Q122.01-3.03 121.59-2.76 121.18-2.49 120.98-2.34 120.79-2.2 120.69-1.71L120.69-1.71Q120.45-0.73 119.67-0.83L119.67-0.83Q118.64-0.98 118.01-2.88L118.01-2.88Q117.13-5.52 116.59-5.96 116.05-6.4 115.78-7.18 115.51-7.96 115.32-8.79L115.32-8.79Q114.93-10.84 114.54-11.16 114.15-11.47 113.9-12.4 113.66-13.33 113.42-13.72 113.17-14.11 112.95-14.6 112.73-15.09 112.49-15.58L112.49-15.58Q111.85-16.8 111.27-16.65L111.27-16.65Q110.93-16.55 110.8-15.8 110.68-15.04 110.58-13.96L110.58-13.96Q110.29-10.84 109.61-9.47L109.61-9.47Q110.05-8.2 110.27-7.15 110.49-6.1 110.17-4.66 109.85-3.22 109.66-2.34 109.46-1.46 109.24-0.81 109.02-0.15 108.73 0.2 108.43 0.54 108 0.46 107.56 0.39 107.41 0.2 107.26 0 107.12-0.2L107.12-0.2Q106.77-0.83 105.94-1.12 105.11-1.42 104.77-1.86 104.43-2.29 104.33-2.88 104.24-3.47 104.21-4.15 104.19-4.83 103.87-5.64 103.55-6.45 103.55-6.98 103.55-7.52 103.65-7.93 103.75-8.35 103.84-8.76 103.94-9.18 103.65-10.06L103.65-10.06Q103.06-11.87 103.99-13.04L103.99-13.04Q104.68-14.01 104.58-14.7L104.58-14.7Q104.28-16.11 103.45-16.55L103.45-16.55Q103.06-16.8 103.06-17.14L103.06-17.14Q103.06-17.87 102.84-18.24 102.62-18.6 102.82-19.19 103.01-19.78 102.77-20.17L102.77-20.17Q102.77-20.21 102.65-21.17 102.53-22.12 102.4-23.61 102.28-25.1 102.14-26.83 101.99-28.56 101.94-30.18L101.94-30.18Q101.75-33.89 102.01-34.52 102.28-35.16 102.84-35.45 103.41-35.74 104.04-35.84L104.04-35.84Q105.41-35.99 106.29-35.64ZM141.98 0.15Q141.83-0.15 141.93-0.71 142.03-1.27 142.05-2.34 142.07-3.42 141.54-3.42L141.54-3.42Q141.1-3.42 140.78-2.47 140.46-1.51 139.93-1.25 139.39-0.98 138.88-0.85 138.36-0.73 137.85-0.61 137.34-0.49 137-0.15L137-0.15Q136.65 0.2 135.92 0.56 135.19 0.93 134.21 0.37 133.24-0.2 132.9-0.63 132.55-1.07 132.38-1.46 132.21-1.86 132.02-2.15 131.82-2.44 131.38-2.54L131.38-2.54Q130.4-2.78 130.06-4.13 129.72-5.47 129.38-7.01 129.04-8.54 128.92-9.72 128.79-10.89 128.65-11.96L128.65-11.96Q128.31-14.55 127.72-15.06 127.13-15.58 127.04-16.5L127.04-16.5Q126.79-18.85 126.79-19.85 126.79-20.85 127.35-22 127.91-23.14 127.91-24.29 127.91-25.44 127.74-26.05 127.57-26.66 127.48-27.03 127.38-27.39 127.38-27.83L127.38-27.83Q127.33-28.61 127.77-30.18L127.77-30.18Q128.01-31.01 128.16-31.71 128.31-32.42 128.45-32.96L128.45-32.96Q128.99-34.91 131.19-34.91L131.19-34.91 131.87-34.91Q133.19-34.91 134.21-35.74L134.21-35.74Q134.7-36.08 135.29-36.28 135.87-36.47 136.26-36.25 136.65-36.04 137.34-36.11 138.02-36.18 138.78-36.65 139.54-37.11 140.56-37.28 141.59-37.45 142.71-37.18 143.83-36.91 144.27-36.28 144.71-35.64 144.98-35.47 145.25-35.3 145.49-35.16L145.49-35.16Q146.42-34.47 146.62-32.23L146.62-32.23Q146.76-30.32 146.13-28.61L146.13-28.61Q146.03-28.27 145.79-27.54 145.54-26.81 145.18-26 144.81-25.2 144.81-24.49 144.81-23.78 144.74-23.14 144.66-22.51 144.32-21.97L144.32-21.97Q143.49-20.65 141.05-20.75L141.05-20.75Q138.95-20.75 138.46-21.44L138.46-21.44Q138.22-21.78 138.19-22.31 138.17-22.85 138.1-23.78 138.02-24.71 137.53-25.49 137.05-26.27 136.22-25.88L136.22-25.88Q135.68-25.59 135.43-23.9 135.19-22.22 135.48-20.51 135.78-18.8 135.75-18.43 135.73-18.07 135.63-17.72L135.63-17.72Q134.99-15.43 135.43-11.23L135.43-11.23Q135.78-8.15 136.95-7.91L136.95-7.91Q138.02-7.71 138.71-9.03L138.71-9.03Q139.29-10.25 138.61-14.06L138.61-14.06Q138.02-17.04 139.58-17.19L139.58-17.19Q140.27-17.29 141.32-17.24 142.37-17.19 143.17-17.41 143.98-17.63 144.88-17.41 145.79-17.19 146.37-16.55 146.96-15.92 146.37-14.11L146.37-14.11Q145.2-10.5 145.93-7.81L145.93-7.81Q146.03-7.37 146.23-6.59 146.42-5.81 146.57-4.86 146.71-3.91 146.76-2.93 146.81-1.95 146.62-1.17L146.62-1.17Q146.27 0.63 144.78 0.63 143.3 0.63 142.71 0.54 142.12 0.44 141.98 0.15ZM166.8-28.47Q166.93-28.17 166.88-27.83 166.83-27.49 166.19-26.66 165.56-25.83 165.44-24.88 165.31-23.93 165.36-23.32 165.41-22.71 165.36-22.27L165.36-22.27Q165.31-21.19 164.19-20.8L164.19-20.8Q163.21-20.41 162.68-20.85 162.14-21.29 161.8-22 161.46-22.71 161.29-23.22 161.12-23.73 160.72-23.78L160.72-23.78Q160.04-23.93 159.67-23.63 159.31-23.34 159.11-23.14L159.11-23.14Q158.72-22.75 158.31-22.61 157.89-22.46 157.65-22.31L157.65-22.31Q157.16-21.97 157.26-21.19L157.26-21.19Q157.45-19.68 160.63-16.6L160.63-16.6Q161.21-16.02 162.02-15.33 162.82-14.65 163.61-13.77L163.61-13.77Q165.36-11.67 165.56-9.03L165.56-9.03Q165.75-6.35 164.78-4.35L164.78-4.35Q164-2.73 162.92-2.25L162.92-2.25Q162.09-1.81 161.8-1.1 161.51-0.39 161.36-0.07 161.21 0.24 160.75 0.46 160.29 0.68 159.7 0.63 159.11 0.59 158.6 0.42 158.09 0.24 157.67 0.02 157.26-0.2 156.99-0.24 156.72-0.29 156.48-0.07 156.23 0.15 155.99 0.39L155.99 0.39Q155.26 1.12 154.67 0.95 154.08 0.78 153.3 0.39 152.52 0 151.79-0.59L151.79-0.59Q149.15-2.64 149.98-4.79L149.98-4.79Q150.52-6.2 151.18-6.79 151.84-7.37 152.23-7.37L152.23-7.37Q152.86-7.37 153.08-6.91 153.3-6.45 153.45-6.13 153.6-5.81 153.79-5.62 153.99-5.42 154.4-5.22 154.82-5.03 155.3-4.98L155.3-4.98Q156.53-4.88 157.16-5.96L157.16-5.96Q157.8-7.03 157.65-8.3L157.65-8.3Q157.31-10.6 156.67-10.25L156.67-10.25Q156.13-9.91 155.35-10.23 154.57-10.55 154.52-11.06 154.47-11.57 154.33-12.06 154.18-12.55 153.99-12.99L153.99-12.99Q153.55-14.11 153.21-14.21L153.21-14.21Q152.81-14.31 152.16-14.31 151.5-14.31 150.71-15.16 149.93-16.02 149.59-17.31 149.25-18.6 149.01-19.56 148.76-20.51 148.57-21.04 148.37-21.58 148.22-22.17L148.22-22.17Q147.74-24.02 148.18-26.95L148.18-26.95Q148.47-28.66 149.25-29.96 150.03-31.25 151.01-32.52L151.01-32.52Q152.86-35.01 154.43-35.99 155.99-36.96 156.82-36.18L156.82-36.18Q157.55-35.55 158.41-35.67 159.26-35.79 159.75-35.94L159.75-35.94 160.63-36.13Q161.46-36.33 162.31-36.08 163.17-35.84 163.85-34.42L163.85-34.42Q164.19-33.69 164.56-33.15 164.92-32.62 165.27-32.13L165.27-32.13Q166-30.96 166.12-30.2 166.24-29.44 166.46-29.1 166.68-28.76 166.8-28.47Z" opacity="1" transform="matrix(1,0,0,1,0,0)" fill="#000000" class="wordmark-text-0" data-fill-palette-color="primary" id="text-0"></path></svg></g></svg></g></svg></g></svg></g><g><svg viewBox="0 0 119.54451738374686 119.54451738374686" height="119.54451738374686" width="119.54451738374686"><g><svg xmlns="http://www.w3.org/2000/svg" viewBox="4 4 56 56" x="0" y="0" height="119.54451738374686" width="119.54451738374686" class="icon-icon-0" data-fill-palette-color="accent" id="icon-0"><g fill="#4b91f1" data-fill-palette-color="accent"><path d="M48 48a3.953 3.953 0 0 0 0.83 2.408 1 1 0 0 1 0.074 1.1l-0.492 1.968 4.272-1.424a0.922 0.922 0 0 1 0.157-0.038A3.884 3.884 0 0 0 56 48a4 4 0 0 0-8 0Zm6.707-1.293L53.414 48l1.293 1.293-1.414 1.414L52 49.414l-1.293 1.293-1.414-1.414L50.586 48l-1.293-1.293 1.414-1.414L52 46.586l1.293-1.293Z" fill="#000000" data-fill-palette-color="accent"></path><path d="M19.9 34.553l1.379 2.759 3.019-3.019A1 1 0 0 1 25 34h6V16H13V34h6A1 1 0 0 1 19.9 34.553ZM23 32H21V30h2ZM22 18a4 4 0 0 1 1 7.874V28H21V24h1a2 2 0 1 0-2-2H18A4 4 0 0 1 22 18Z" fill="#000000" data-fill-palette-color="accent"></path><path d="M38.707 38.293l3.019 3.019 1.379-2.759A1 1 0 0 1 44 38h7V20H33V38h5A1 1 0 0 1 38.707 38.293ZM43 36H41V34h2ZM39.25 22.338A1 1 0 0 1 40 22h4a1 1 0 0 1 0.992 1.124l-1 8A1 1 0 0 1 43 32H41a1 1 0 0 1-0.992-0.876l-1-8A1 1 0 0 1 39.25 22.338Z" fill="#000000" data-fill-palette-color="accent"></path><polygon points="42.117 30 42.867 24 41.133 24 41.883 30 42.117 30" fill="#000000" data-fill-palette-color="accent"></polygon><path d="M18 4H4v6H18ZM8 8H6V6H8Zm4 0H10V6h2Zm4 0H14V6h2Z" fill="#000000" data-fill-palette-color="accent"></path><path d="M41 48a1 1 0 0 0-1 1v7a1 1 0 0 1-0.366 0.773 0.984 0.984 0 0 1-0.83 0.207l-5-1a1 1 0 0 1-0.752-1.3l1-3c0.417-1.684-0.111-4.23-1.423-4.756a5.469 5.469 0 0 0-3.27 0.006c-1.3 0.52-1.828 3.066-1.389 4.824l0.978 2.926a1 1 0 0 1-0.706 1.286l-4 1C23.6 57.081 23 57.6 23 58v2H42V49A1 1 0 0 0 41 48Z" fill="#000000" data-fill-palette-color="accent"></path><rect x="20" y="4" width="40" height="6" fill="#000000" data-fill-palette-color="accent"></rect><path d="M4 60H21V58a3.328 3.328 0 0 1 2.836-2.986l2.874-0.722-0.658-1.976c-0.606-2.411-0.028-6.2 2.577-7.244a7.5 7.5 0 0 1 4.73-0.006c2.617 1.047 3.2 4.839 2.611 7.176l-0.664 2L38 54.78V49a3 3 0 0 1 6 0V60H60V12H4ZM58 48a5.925 5.925 0 0 1-4.757 5.973l-5.927 1.976a1 1 0 0 1-1.286-1.192l0.9-3.586A5.888 5.888 0 0 1 46 48a6 6 0 0 1 12 0ZM11 15a1 1 0 0 1 1-1H32a1 1 0 0 1 1 1v3H52a1 1 0 0 1 1 1V39a1 1 0 0 1-1 1H44.618L42.9 43.447a1 1 0 0 1-0.735 0.54A0.968 0.968 0 0 1 42 44a1 1 0 0 1-0.707-0.293L37.586 40H32a1 1 0 0 1-1-1V36H25.414l-3.707 3.707A1 1 0 0 1 21 40a0.968 0.968 0 0 1-0.16-0.013 1 1 0 0 1-0.735-0.54L18.382 36H12a1 1 0 0 1-1-1Zm2 24a7 7 0 0 1 6.382 9.876C19.838 49.987 20.748 52 22 52a1 1 0 0 1 0.164 1.986 23.209 23.209 0 0 1-3.507 0.264A12.19 12.19 0 0 1 12.7 52.994 7 7 0 0 1 13 39Z" fill="#000000" data-fill-palette-color="accent"></path><path d="M13 51a1.006 1.006 0 0 1 0.555 0.168c1.33 0.886 3.531 1.113 5.384 1.08a12.443 12.443 0 0 1-1.52-2.892l-0.059-0.144a1.006 1.006 0 0 1 0.046-0.849A5 5 0 1 0 13 51Zm-2.293-5.707L12 46.586l3.293-3.293 1.414 1.414L12 49.414 9.293 46.707Z" fill="#000000" data-fill-palette-color="accent"></path></g></svg></g></svg></g></svg></g><defs></defs></svg><rect width="395.52" height="88.11054317127514" fill="none" stroke="none" visibility="hidden"></rect></g></svg></g></svg>